<svg xmlns="http://www.w3.org/2000/svg" width="588.941" height="587.543" viewBox="150.555 125.162 499.931 498.744"><path fill="#ff355e" d="M603.7 520.3l-8.9 12.4-34.4-25 7-9.4c41-54.2 52-126.7 30-190.7-25-72.6-88.6-126.2-164.5-138-71.3-11.2-146.2 17.2-191.9 73.4-12 14.8-22.9 32.6-30.4 50.1-29 67.7-18.1 148 25.8 206.8l5.8 7.8-33.7 24.7-4-4.7c-2.2-2.6-9-12.9-15.2-23-18.4-30.2-30.8-63.5-35.2-98.8-9.9-78.4 18.3-158.1 75.7-212.6 55.1-52.5 132.1-76.2 207.1-65.7 83.7 11.6 157.3 67.7 192 144.5 36.3 80.5 26.1 176.6-25.2 248.2z"/><path fill="#ff355e" d="M406.1 513.6l25.4 .4 21.4 4.6c34.9 7.4 68.9 21.8 97.5 43.2l8.5 6.3-7.5 5.7c-49.5 38-114.9 55.6-176.8 48.6-36.9-4.1-74.4-16.9-105.8-36.7-5.4-3.4-13.1-8.8-17.2-11.9l-7.5-5.7 5-3.8c19.3-14.9 41.9-27.1 64.5-36.2 18-7.2 37.7-11.9 57-13.9 5.7-.6 21-.9 35.5-.6z"/><path fill="#ff355e" d="M387.7 275.7c43.5-6.6 86.7 19.5 100.8 61.4 13.7 40.6-2.9 86.4-39.8 108.5-37 22.1-85.9 15-115-16.7-29.7-32.3-32-82.4-5.9-117.6 14.2-19.1 36.5-32.1 59.9-35.6z"/></svg>